<mxfile host="app.diagrams.net" modified="2024-05-22T06:21:27.903Z" agent="Mozilla/5.0 (Windows NT 10.0; Win64; x64) AppleWebKit/537.36 (KHTML, like Gecko) Chrome/125.0.0.0 Safari/537.36" etag="y9qrOUN_b21Dr80hb3I-" version="24.4.4" type="device">
  <diagram name="create_data" id="TNhRC8DHdBJC5wp6LsGn">
    <mxGraphModel dx="1207" dy="651" grid="1" gridSize="10" guides="1" tooltips="1" connect="1" arrows="1" fold="1" page="1" pageScale="1" pageWidth="827" pageHeight="1169" math="0" shadow="0">
      <root>
        <mxCell id="6Xc-942YzRekp2biPASi-0" />
        <mxCell id="6Xc-942YzRekp2biPASi-1" parent="6Xc-942YzRekp2biPASi-0" />
        <mxCell id="6Xc-942YzRekp2biPASi-2" value="Tambah Data" style="text;strokeColor=none;align=center;fillColor=none;html=1;verticalAlign=middle;whiteSpace=wrap;rounded=0;fontStyle=1;fontSize=18;" parent="6Xc-942YzRekp2biPASi-1" vertex="1">
          <mxGeometry y="10" width="140" height="30" as="geometry" />
        </mxCell>
        <mxCell id="T1dSmCm0bRuZNZxUCCLf-0" style="edgeStyle=orthogonalEdgeStyle;rounded=0;orthogonalLoop=1;jettySize=auto;html=1;exitX=0.5;exitY=1;exitDx=0;exitDy=0;entryX=0.5;entryY=0;entryDx=0;entryDy=0;" parent="6Xc-942YzRekp2biPASi-1" source="6Xc-942YzRekp2biPASi-4" target="6Xc-942YzRekp2biPASi-6" edge="1">
          <mxGeometry relative="1" as="geometry" />
        </mxCell>
        <mxCell id="6Xc-942YzRekp2biPASi-4" value="&lt;font style=&quot;font-size: 12px;&quot;&gt;B&lt;/font&gt;" style="verticalLabelPosition=middle;verticalAlign=middle;html=1;shape=offPageConnector;rounded=0;size=0.5;whiteSpace=wrap;textShadow=0;labelBorderColor=none;labelBackgroundColor=none;fontColor=default;labelPosition=center;align=center;" parent="6Xc-942YzRekp2biPASi-1" vertex="1">
          <mxGeometry x="384" y="60" width="60" height="60" as="geometry" />
        </mxCell>
        <mxCell id="gASQm25_ZUMx7LtCjupk-1" style="edgeStyle=orthogonalEdgeStyle;rounded=0;orthogonalLoop=1;jettySize=auto;html=1;exitX=0.5;exitY=1;exitDx=0;exitDy=0;entryX=0.5;entryY=0;entryDx=0;entryDy=0;" parent="6Xc-942YzRekp2biPASi-1" source="6Xc-942YzRekp2biPASi-6" target="gASQm25_ZUMx7LtCjupk-0" edge="1">
          <mxGeometry relative="1" as="geometry" />
        </mxCell>
        <mxCell id="6Xc-942YzRekp2biPASi-6" value="Input nama, umur, jenis kelamin,alamat,divisi,level,jabatan,gaji" style="shape=parallelogram;html=1;strokeWidth=2;perimeter=parallelogramPerimeter;whiteSpace=wrap;rounded=1;arcSize=12;size=0.17250000000000001;" parent="6Xc-942YzRekp2biPASi-1" vertex="1">
          <mxGeometry x="274" y="170" width="280" height="60" as="geometry" />
        </mxCell>
        <mxCell id="6Xc-942YzRekp2biPASi-7" style="edgeStyle=orthogonalEdgeStyle;rounded=0;orthogonalLoop=1;jettySize=auto;html=1;exitX=0.5;exitY=1;exitDx=0;exitDy=0;entryX=0.5;entryY=0;entryDx=0;entryDy=0;" parent="6Xc-942YzRekp2biPASi-1" source="6Xc-942YzRekp2biPASi-8" target="6Xc-942YzRekp2biPASi-11" edge="1">
          <mxGeometry relative="1" as="geometry" />
        </mxCell>
        <mxCell id="6Xc-942YzRekp2biPASi-8" value="Proses tambah data" style="rounded=1;whiteSpace=wrap;html=1;" parent="6Xc-942YzRekp2biPASi-1" vertex="1">
          <mxGeometry x="341" y="490" width="146" height="80" as="geometry" />
        </mxCell>
        <mxCell id="6Xc-942YzRekp2biPASi-9" style="edgeStyle=orthogonalEdgeStyle;rounded=0;orthogonalLoop=1;jettySize=auto;html=1;exitX=0.5;exitY=1;exitDx=0;exitDy=0;entryX=0.5;entryY=0;entryDx=0;entryDy=0;" parent="6Xc-942YzRekp2biPASi-1" source="6Xc-942YzRekp2biPASi-11" target="6Xc-942YzRekp2biPASi-15" edge="1">
          <mxGeometry relative="1" as="geometry" />
        </mxCell>
        <mxCell id="6Xc-942YzRekp2biPASi-10" style="edgeStyle=orthogonalEdgeStyle;rounded=0;orthogonalLoop=1;jettySize=auto;html=1;exitX=0;exitY=0.5;exitDx=0;exitDy=0;entryX=0.5;entryY=1;entryDx=0;entryDy=0;" parent="6Xc-942YzRekp2biPASi-1" source="6Xc-942YzRekp2biPASi-11" target="6Xc-942YzRekp2biPASi-13" edge="1">
          <mxGeometry relative="1" as="geometry" />
        </mxCell>
        <mxCell id="6Xc-942YzRekp2biPASi-11" value="Berhasil input?" style="rhombus;whiteSpace=wrap;html=1;rounded=0;" parent="6Xc-942YzRekp2biPASi-1" vertex="1">
          <mxGeometry x="355.32" y="638" width="117.37" height="120" as="geometry" />
        </mxCell>
        <mxCell id="6Xc-942YzRekp2biPASi-12" style="edgeStyle=orthogonalEdgeStyle;rounded=0;orthogonalLoop=1;jettySize=auto;html=1;exitX=0.5;exitY=0;exitDx=0;exitDy=0;entryX=0;entryY=0.25;entryDx=0;entryDy=0;" parent="6Xc-942YzRekp2biPASi-1" source="6Xc-942YzRekp2biPASi-13" target="6Xc-942YzRekp2biPASi-6" edge="1">
          <mxGeometry relative="1" as="geometry">
            <Array as="points">
              <mxPoint x="125" y="189" />
            </Array>
          </mxGeometry>
        </mxCell>
        <mxCell id="6Xc-942YzRekp2biPASi-13" value="Ada kesalahan dalam&amp;nbsp;&lt;div&gt;input data&lt;/div&gt;" style="shape=parallelogram;html=1;strokeWidth=2;perimeter=parallelogramPerimeter;whiteSpace=wrap;rounded=1;arcSize=12;size=0.23;" parent="6Xc-942YzRekp2biPASi-1" vertex="1">
          <mxGeometry x="30" y="540" width="190" height="60" as="geometry" />
        </mxCell>
        <mxCell id="6Xc-942YzRekp2biPASi-14" style="edgeStyle=orthogonalEdgeStyle;rounded=0;orthogonalLoop=1;jettySize=auto;html=1;exitX=0.5;exitY=1;exitDx=0;exitDy=0;entryX=0.5;entryY=0;entryDx=0;entryDy=0;" parent="6Xc-942YzRekp2biPASi-1" source="6Xc-942YzRekp2biPASi-15" target="6Xc-942YzRekp2biPASi-17" edge="1">
          <mxGeometry relative="1" as="geometry" />
        </mxCell>
        <mxCell id="6Xc-942YzRekp2biPASi-15" value="Data berhasil ditambah" style="shape=parallelogram;html=1;strokeWidth=2;perimeter=parallelogramPerimeter;whiteSpace=wrap;rounded=1;arcSize=12;size=0.23;" parent="6Xc-942YzRekp2biPASi-1" vertex="1">
          <mxGeometry x="319" y="820" width="190" height="60" as="geometry" />
        </mxCell>
        <mxCell id="6Xc-942YzRekp2biPASi-16" style="edgeStyle=orthogonalEdgeStyle;rounded=0;orthogonalLoop=1;jettySize=auto;html=1;exitX=1;exitY=0.5;exitDx=0;exitDy=0;entryX=1;entryY=0.25;entryDx=0;entryDy=0;" parent="6Xc-942YzRekp2biPASi-1" source="6Xc-942YzRekp2biPASi-17" target="6Xc-942YzRekp2biPASi-6" edge="1">
          <mxGeometry relative="1" as="geometry">
            <Array as="points">
              <mxPoint x="690" y="1000" />
              <mxPoint x="690" y="186" />
            </Array>
          </mxGeometry>
        </mxCell>
        <mxCell id="6Xc-942YzRekp2biPASi-17" value="Apakah lanjut?" style="rhombus;whiteSpace=wrap;html=1;" parent="6Xc-942YzRekp2biPASi-1" vertex="1">
          <mxGeometry x="355" y="940" width="117.37" height="120" as="geometry" />
        </mxCell>
        <mxCell id="6Xc-942YzRekp2biPASi-18" value="Selesai" style="strokeWidth=2;html=1;shape=mxgraph.flowchart.terminator;whiteSpace=wrap;" parent="6Xc-942YzRekp2biPASi-1" vertex="1">
          <mxGeometry x="364" y="1100" width="100" height="60" as="geometry" />
        </mxCell>
        <mxCell id="6Xc-942YzRekp2biPASi-19" style="edgeStyle=orthogonalEdgeStyle;rounded=0;orthogonalLoop=1;jettySize=auto;html=1;exitX=0.5;exitY=1;exitDx=0;exitDy=0;entryX=0.5;entryY=0;entryDx=0;entryDy=0;entryPerimeter=0;" parent="6Xc-942YzRekp2biPASi-1" source="6Xc-942YzRekp2biPASi-17" target="6Xc-942YzRekp2biPASi-18" edge="1">
          <mxGeometry relative="1" as="geometry" />
        </mxCell>
        <mxCell id="Q8gtAGCLLTn1pP9uTIo5-0" value="Ya" style="text;html=1;align=center;verticalAlign=middle;resizable=0;points=[];autosize=1;strokeColor=none;fillColor=none;" parent="6Xc-942YzRekp2biPASi-1" vertex="1">
          <mxGeometry x="414" y="770" width="40" height="30" as="geometry" />
        </mxCell>
        <mxCell id="Q8gtAGCLLTn1pP9uTIo5-1" value="Tidak" style="text;html=1;align=center;verticalAlign=middle;resizable=0;points=[];autosize=1;strokeColor=none;fillColor=none;" parent="6Xc-942YzRekp2biPASi-1" vertex="1">
          <mxGeometry x="224" y="670" width="50" height="30" as="geometry" />
        </mxCell>
        <mxCell id="Q8gtAGCLLTn1pP9uTIo5-2" value="Tidak" style="text;html=1;align=center;verticalAlign=middle;resizable=0;points=[];autosize=1;strokeColor=none;fillColor=none;" parent="6Xc-942YzRekp2biPASi-1" vertex="1">
          <mxGeometry x="414" y="1060" width="50" height="30" as="geometry" />
        </mxCell>
        <mxCell id="Q8gtAGCLLTn1pP9uTIo5-3" value="Ya" style="text;html=1;align=center;verticalAlign=middle;resizable=0;points=[];autosize=1;strokeColor=none;fillColor=none;" parent="6Xc-942YzRekp2biPASi-1" vertex="1">
          <mxGeometry x="550" y="970" width="40" height="30" as="geometry" />
        </mxCell>
        <mxCell id="gASQm25_ZUMx7LtCjupk-2" style="edgeStyle=orthogonalEdgeStyle;rounded=0;orthogonalLoop=1;jettySize=auto;html=1;exitX=0.5;exitY=1;exitDx=0;exitDy=0;entryX=0.5;entryY=0;entryDx=0;entryDy=0;" parent="6Xc-942YzRekp2biPASi-1" source="gASQm25_ZUMx7LtCjupk-0" target="6Xc-942YzRekp2biPASi-8" edge="1">
          <mxGeometry relative="1" as="geometry" />
        </mxCell>
        <mxCell id="gASQm25_ZUMx7LtCjupk-0" value="Apakah nama terduplikat?" style="rhombus;whiteSpace=wrap;html=1;rounded=0;" parent="6Xc-942YzRekp2biPASi-1" vertex="1">
          <mxGeometry x="355.32" y="300" width="117.37" height="120" as="geometry" />
        </mxCell>
        <mxCell id="gASQm25_ZUMx7LtCjupk-3" value="Tidak" style="text;html=1;align=center;verticalAlign=middle;resizable=0;points=[];autosize=1;strokeColor=none;fillColor=none;" parent="6Xc-942YzRekp2biPASi-1" vertex="1">
          <mxGeometry x="414" y="430" width="50" height="30" as="geometry" />
        </mxCell>
        <mxCell id="gASQm25_ZUMx7LtCjupk-5" style="edgeStyle=orthogonalEdgeStyle;rounded=0;orthogonalLoop=1;jettySize=auto;html=1;exitX=0;exitY=0.5;exitDx=0;exitDy=0;entryX=0.039;entryY=1.039;entryDx=0;entryDy=0;entryPerimeter=0;" parent="6Xc-942YzRekp2biPASi-1" source="gASQm25_ZUMx7LtCjupk-0" target="6Xc-942YzRekp2biPASi-6" edge="1">
          <mxGeometry relative="1" as="geometry" />
        </mxCell>
        <mxCell id="gASQm25_ZUMx7LtCjupk-6" value="Ya" style="text;html=1;align=center;verticalAlign=middle;resizable=0;points=[];autosize=1;strokeColor=none;fillColor=none;" parent="6Xc-942YzRekp2biPASi-1" vertex="1">
          <mxGeometry x="301" y="330" width="40" height="30" as="geometry" />
        </mxCell>
      </root>
    </mxGraphModel>
  </diagram>
</mxfile>
